<svg id="Layer_1" data-name="Layer 1" xmlns="http://www.w3.org/2000/svg" viewBox="0 0 150 150"><defs><style>.cls-1{fill:#a100ff;fill-rule:evenodd;}</style></defs><path class="cls-1" d="M75,31A16.74,16.74,0,0,0,58.43,47.47a16.57,16.57,0,0,0,33.14,0A16.74,16.74,0,0,0,75,31ZM75,69.4A22,22,0,0,1,52.91,47.47,22.32,22.32,0,0,1,75,25.53,22,22,0,0,1,97.09,47.47,21.73,21.73,0,0,1,75,69.4Zm.08-55.15c-19.34,0-35,16.11-35,35.44,0,17,27.17,60.29,35,73.18,8.29-12.89,35.46-56.15,35.46-73.18A35.77,35.77,0,0,0,75.08,14.25Zm0,116.44h0a2.53,2.53,0,0,1-2.3-1.38C71.4,127,34.55,70.86,34.55,49.69c0-22.55,18.43-41,40.53-41a41.06,41.06,0,0,1,41,41c0,21.17-36.84,77.32-38.69,79.62A2.53,2.53,0,0,1,75.08,130.69ZM135.75,128,75,141.27c-6.44,0-66.27,0-66.27-13.76,0-6,12.89-10.08,38.2-12.38a3.06,3.06,0,0,1,3.22,2.3c0,1.83-.92,3.21-2.76,3.21-23.47,1.83-31.29,5.5-32.68,6.87,2.31,3.21,23.93,8.26,60.29,8.26s58-5.05,60.75-8.26c-1.38-1.37-9.67-5-33.14-6.87-1.84,0-2.76-1.38-2.76-3.21a3.06,3.06,0,0,1,3.22-2.3c25.31,2.3,38.2,6.42,38.2,12.38C141.27,141.27,81.9,141.27,75,141.27Z"/></svg>